<svg width="16" height="16" viewBox="0 0 16 16" fill="none" xmlns="http://www.w3.org/2000/svg">
<path d="M7.99917 4.91797C7.1816 4.91797 6.39751 5.24275 5.8194 5.82086C5.24128 6.39897 4.9165 7.18306 4.9165 8.00064C4.9165 8.81821 5.24128 9.6023 5.8194 10.1804C6.39751 10.7585 7.1816 11.0833 7.99917 11.0833C8.81674 11.0833 9.60083 10.7585 10.1789 10.1804C10.7571 9.6023 11.0818 8.81821 11.0818 8.00064C11.0818 7.18306 10.7571 6.39897 10.1789 5.82086C9.60083 5.24275 8.81674 4.91797 7.99917 4.91797ZM7.99917 10.0026C7.46803 10.0026 6.95864 9.79164 6.58307 9.41607C6.2075 9.04049 5.9965 8.53111 5.9965 7.99997C5.9965 7.46883 6.2075 6.95944 6.58307 6.58387C6.95864 6.2083 7.46803 5.9973 7.99917 5.9973C8.53031 5.9973 9.0397 6.2083 9.41527 6.58387C9.79084 6.95944 10.0018 7.46883 10.0018 7.99997C10.0018 8.53111 9.79084 9.04049 9.41527 9.41607C9.0397 9.79164 8.53031 10.0026 7.99917 10.0026Z" fill="white"/>
<path d="M11.204 5.52327C11.6009 5.52327 11.9227 5.20151 11.9227 4.8046C11.9227 4.4077 11.6009 4.08594 11.204 4.08594C10.8071 4.08594 10.4854 4.4077 10.4854 4.8046C10.4854 5.20151 10.8071 5.52327 11.204 5.52327Z" fill="white"/>
<path d="M13.6888 4.07408C13.5345 3.67554 13.2986 3.31361 12.9964 3.01146C12.6941 2.70931 12.3321 2.4736 11.9335 2.31942C11.467 2.14432 10.9743 2.04965 10.4761 2.03942C9.83413 2.01142 9.6308 2.00342 8.0028 2.00342C6.3748 2.00342 6.16613 2.00342 5.52947 2.03942C5.03172 2.04912 4.5393 2.14382 4.07347 2.31942C3.67476 2.47342 3.31264 2.70906 3.01035 3.01124C2.70807 3.31341 2.47228 3.67543 2.31813 4.07408C2.143 4.54049 2.04854 5.03331 2.0388 5.53142C2.01013 6.17275 2.00146 6.37608 2.00146 8.00475C2.00146 9.63275 2.00146 9.84008 2.0388 10.4781C2.0488 10.9768 2.1428 11.4688 2.31813 11.9361C2.47272 12.3346 2.70873 12.6965 3.01109 12.9986C3.31345 13.3007 3.67551 13.5365 4.07413 13.6907C4.53909 13.8729 5.03171 13.9743 5.5308 13.9908C6.1728 14.0188 6.37613 14.0274 8.00413 14.0274C9.63213 14.0274 9.8408 14.0274 10.4775 13.9908C10.9755 13.9806 11.4683 13.8862 11.9348 13.7114C12.3333 13.5569 12.6952 13.321 12.9974 13.0187C13.2997 12.7165 13.5356 12.3546 13.6901 11.9561C13.8655 11.4894 13.9595 10.9974 13.9695 10.4988C13.9981 9.85742 14.0068 9.65408 14.0068 8.02542C14.0068 6.39675 14.0068 6.19008 13.9695 5.55208C13.9617 5.04693 13.8668 4.54692 13.6888 4.07408ZM12.8768 10.4288C12.8725 10.813 12.8024 11.1936 12.6695 11.5541C12.5693 11.8133 12.4161 12.0488 12.2195 12.2452C12.0229 12.4417 11.7874 12.5948 11.5281 12.6947C11.1716 12.827 10.795 12.8972 10.4148 12.9021C9.78147 12.9314 9.6028 12.9388 7.9788 12.9388C6.35347 12.9388 6.18747 12.9388 5.54213 12.9021C5.16208 12.8974 4.78568 12.8273 4.42947 12.6947C4.16926 12.5954 3.9328 12.4425 3.73539 12.2461C3.53798 12.0496 3.38402 11.8138 3.28347 11.5541C3.15243 11.1975 3.08234 10.8213 3.07613 10.4414C3.04746 9.80808 3.0408 9.62942 3.0408 8.00542C3.0408 6.38075 3.0408 6.21475 3.07613 5.56875C3.08044 5.18477 3.15057 4.80436 3.28347 4.44408C3.4868 3.91808 3.90347 3.50408 4.42947 3.30275C4.78586 3.17084 5.16215 3.10073 5.54213 3.09542C6.17613 3.06675 6.35413 3.05875 7.9788 3.05875C9.60347 3.05875 9.77013 3.05875 10.4148 3.09542C10.7951 3.09999 11.1717 3.17013 11.5281 3.30275C11.7874 3.40293 12.0229 3.55622 12.2194 3.75277C12.416 3.94932 12.5693 4.1848 12.6695 4.44408C12.8005 4.80072 12.8706 5.17686 12.8768 5.55675C12.9055 6.19075 12.9128 6.36875 12.9128 7.99342C12.9128 9.61742 12.9128 9.79208 12.8841 10.4294H12.8768V10.4288Z" fill="white"/>
</svg>
