<svg width="17" height="16" viewBox="0 0 17 16" fill="none" xmlns="http://www.w3.org/2000/svg">
<path d="M16.017 5.93272C15.9643 5.77142 15.8261 5.6562 15.6582 5.62986L10.6545 4.91881L8.40278 0.392403C8.32707 0.240973 8.17235 0.145508 8.00446 0.145508C7.83657 0.145508 7.68185 0.240973 7.60613 0.395695L5.38408 4.93527L0.380347 5.67924C0.212459 5.70558 0.0741979 5.8208 0.0215271 5.9821C-0.0311438 6.14341 0.0149432 6.32117 0.136745 6.43639L3.76774 9.95546L2.9283 14.9394C2.89867 15.1073 2.9678 15.2752 3.10607 15.374C3.18178 15.4299 3.27395 15.4596 3.36613 15.4596C3.43855 15.4596 3.50768 15.4431 3.57352 15.4069L8.04067 13.04L12.521 15.3806C12.5868 15.4135 12.656 15.4299 12.7251 15.4299C12.9687 15.4299 13.1695 15.2291 13.1695 14.9855C13.1695 14.9493 13.1662 14.9164 13.1563 14.8835L12.2906 9.92913L15.8985 6.3903C16.0269 6.27179 16.0697 6.09403 16.017 5.93272Z" fill="#FC3D3D"/>
</svg>
