<svg width="16" height="16" viewBox="0 0 16 16" fill="none" xmlns="http://www.w3.org/2000/svg">
<path d="M13.0888 5.3312C13.0975 5.44787 13.0975 5.56387 13.0975 5.67987C13.0975 9.22987 10.3955 13.3205 5.4575 13.3205C3.93616 13.3205 2.52283 12.8799 1.3335 12.1145C1.5495 12.1392 1.7575 12.1479 1.98216 12.1479C3.19082 12.1508 4.36526 11.7466 5.31616 11.0005C4.75578 10.9904 4.21255 10.8055 3.76232 10.4717C3.3121 10.1379 2.97735 9.6718 2.80483 9.13853C2.97083 9.1632 3.1375 9.17987 3.31216 9.17987C3.55283 9.17987 3.79483 9.14653 4.0195 9.08853C3.41134 8.96574 2.86448 8.6361 2.47191 8.15566C2.07934 7.67521 1.86529 7.07363 1.86616 6.4532V6.41987C2.22416 6.6192 2.6395 6.74387 3.0795 6.76053C2.71089 6.51559 2.40864 6.18322 2.19972 5.79306C1.9908 5.40291 1.8817 4.9671 1.88216 4.52453C1.88216 4.02587 2.01483 3.56853 2.2475 3.16987C2.92226 3.99988 3.76383 4.67891 4.71772 5.16297C5.67161 5.64704 6.71654 5.92534 7.78483 5.97987C7.7435 5.77987 7.71816 5.57253 7.71816 5.36453C7.71799 5.01184 7.78733 4.66257 7.92221 4.33669C8.0571 4.01081 8.2549 3.71472 8.50429 3.46532C8.75368 3.21593 9.04978 3.01814 9.37566 2.88325C9.70154 2.74836 10.0508 2.67902 10.4035 2.6792C11.1768 2.6792 11.8748 3.0032 12.3655 3.5272C12.9667 3.41094 13.5432 3.19148 14.0695 2.87853C13.8691 3.49908 13.4493 4.02527 12.8888 4.35853C13.422 4.29772 13.9431 4.1575 14.4348 3.94253C14.0676 4.47793 13.6125 4.94743 13.0888 5.3312Z" fill="white"/>
</svg>
